HIERARCHY
ROOT root
{
	OFFSET	0	13.1	24.9
	CHANNELS 6  Xposition Yposition Zposition Xrotation Yrotation Zrotation
	JOINT spine_1
	{
		OFFSET	0	9.99999	0
		CHANNELS 3  Xrotation Yrotation Zrotation
		JOINT spine_2
		{
			OFFSET	0	112	-10
			CHANNELS 3  Xrotation Yrotation Zrotation
			JOINT spine_3
			{
				OFFSET	0	206.5	19.3
				CHANNELS 3  Xrotation Yrotation Zrotation
				JOINT spine_4
				{
					OFFSET	0	110.4	14.6
					CHANNELS 3  Xrotation Yrotation Zrotation
					JOINT neck_1
					{
						OFFSET	0	71.8	-50.3
						CHANNELS 3  Xrotation Yrotation Zrotation
						JOINT neck_2
						{
							OFFSET	0	86.2	-25.8
							CHANNELS 3  Xrotation Yrotation Zrotation
							JOINT head_ee
							{
								OFFSET	0	179.8	-8.7
								CHANNELS 3  Xrotation Yrotation Zrotation
								End Site
								{
									OFFSET	1	0	0
								}
							}
						}
					}
					JOINT left_clavicle
					{
						OFFSET	-43.2	22.4	-70.8
						CHANNELS 3  Xrotation Yrotation Zrotation
						JOINT left_shoulder
						{
							OFFSET	-93.9	-5.79999	48.7
							CHANNELS 3  Xrotation Yrotation Zrotation
							JOINT left_elbow
							{
								OFFSET	-291.4	-30.8	15.2
								CHANNELS 3  Xrotation Yrotation Zrotation
								JOINT left_lowarm_twist
								{
									OFFSET	-110.7	-3.89999	13.6
									CHANNELS 3  Xrotation Yrotation Zrotation
									JOINT left_hand
									{
										OFFSET	-110.7	-3.89999	13.6
										CHANNELS 3  Xrotation Yrotation Zrotation
										JOINT left_ee
										{
											OFFSET	-80.8	-5.10001	12.1
											CHANNELS 3  Xrotation Yrotation Zrotation
											End Site
											{
												OFFSET	1	0	0
											}
										}
									}
								}
							}
						}
					}
					JOINT right_clavicle
					{
						OFFSET	43.2	22.4	-70.8
						CHANNELS 3  Xrotation Yrotation Zrotation
						JOINT right_shoulder
						{
							OFFSET	93.9	-5.79999	48.7
							CHANNELS 3  Xrotation Yrotation Zrotation
							JOINT right_elbow
							{
								OFFSET	291.4	-30.8	15.2
								CHANNELS 3  Xrotation Yrotation Zrotation
								JOINT right_lowarm_twist
								{
									OFFSET	110.7	-3.89999	13.6
									CHANNELS 3  Xrotation Yrotation Zrotation
									JOINT right_hand
									{
										OFFSET	110.7	-3.89999	13.6
										CHANNELS 3  Xrotation Yrotation Zrotation
										JOINT right_ee
										{
											OFFSET	80.8	-5.10001	12.1
											CHANNELS 3  Xrotation Yrotation Zrotation
											End Site
											{
												OFFSET	1	0	0
											}
										}
									}
								}
							}
						}
					}
				}
			}
		}
	}
	JOINT left_hip
	{
		OFFSET	-82.8	-127.5	0.300001
		CHANNELS 3  Xrotation Yrotation Zrotation
		JOINT left_knee
		{
			OFFSET	-28.2	-396.7	2.2
			CHANNELS 3  Xrotation Yrotation Zrotation
			JOINT left_ankle
			{
				OFFSET	-11.7	-411.3	35.4
				CHANNELS 3  Xrotation Yrotation Zrotation
				JOINT left_toes
				{
					OFFSET	0	-60	-88.6
					CHANNELS 3  Xrotation Yrotation Zrotation
					JOINT left_foot_ee
					{
						OFFSET	-22.5	-16.5	-42.2
						CHANNELS 3  Xrotation Yrotation Zrotation
						End Site
						{
							OFFSET	1	0	0
						}
					}
				}
			}
		}
	}
	JOINT right_hip
	{
		OFFSET	82.8	-127.5	0.300001
		CHANNELS 3  Xrotation Yrotation Zrotation
		JOINT right_knee
		{
			OFFSET	28.2	-396.7	2.2
			CHANNELS 3  Xrotation Yrotation Zrotation
			JOINT right_ankle
			{
				OFFSET	11.7	-411.3	35.4
				CHANNELS 3  Xrotation Yrotation Zrotation
				JOINT right_toes
				{
					OFFSET	0	-60	-88.6
					CHANNELS 3  Xrotation Yrotation Zrotation
					JOINT right_foot_ee
					{
						OFFSET	22.5	-16.5	-42.2
						CHANNELS 3  Xrotation Yrotation Zrotation
						End Site
						{
							OFFSET	1	0	0
						}
					}
				}
			}
		}
	}
}
MOTION
Frames: 5
Frame Time: 0.02
1884.47 702.858 -580.051 126.604 -76.2789 126.316 -4.45309 0.420853 1.58154 -4.45175 0.319376 1.60511 -4.44014 -0.151719 1.62952 -4.44383 0.107502 1.63303 -9.20359 2.41406 3.59622 -9.16917 2.05141 4.09634 -0.0 0.0 -0.0 3.81363 2.88125 7.49848 -18.7955 -11.307 65.5771 0.370737 -10.4067 0.0337618 -36.8452 -2.62207 3.825 2.69495 -3.13883 17.0454 -0.0 0.0 -0.0 7.18627 28.6248 -12.3529 6.61854 10.3465 -57.3291 1.48962 36.4217 -0.490099 33.5948 0.0586742 4.23026 4.06253 -26.4334 -35.688 0.0 0.0 0.0 10.8447 9.12729 2.1096 -8.49965 0.25553 1.27822 9.73972 9.41531 -1.38613 -34.2424 0.0 0.0 -0.0 0.0 -0.0 -27.8121 6.44146 0.486615 -16.3393 -0.321263 -2.47836 -14.091 1.5884 -2.1452 25.0259 -0.0 -0.0 0.0 0.0 0.0 
1912.78 705.036 -581.563 125.154 -75.1097 124.79 -4.29789 0.527923 1.56972 -4.29662 0.426981 1.60012 -4.28198 -0.042545 1.65555 -4.28574 0.219416 1.6415 -11.4729 4.57052 1.53653 -11.4944 7.64908 2.72806 -0.0 0.0 -0.0 2.4365 -3.74592 4.39756 -16.913 -5.79045 71.7245 0.497616 -13.8478 0.0604291 -33.8111 -2.3183 3.58168 0.8667 -1.748 5.08006 -0.0 0.0 -0.0 7.32129 27.9888 -12.7198 6.61395 8.43795 -58.7834 1.18757 30.4666 -0.323407 36.2528 0.16884 4.55165 4.54086 -30.1546 -39.4771 0.0 0.0 0.0 6.03942 9.29413 3.19071 -5.33265 0.182538 0.797753 11.3285 9.54112 -1.60345 -35.4679 0.0 0.0 -0.0 0.0 -0.0 -26.7175 10.3298 -0.358668 -23.3418 -0.241008 -3.54917 -18.8164 -4.13862 -2.83648 23.9211 -0.0 -0.0 0.0 0.0 0.0 
1937.77 707.288 -583.931 130.545 -73.813 130.093 -4.27799 0.961939 1.53344 -4.27709 0.862426 1.59153 -4.25014 0.378774 1.77006 -4.25392 0.65353 1.68807 -12.3798 3.27535 3.95427 -12.3438 3.6958 4.72802 -0.0 0.0 -0.0 2.89873 -8.97949 4.90436 -16.8276 -4.18747 72.8414 0.54295 -15.0543 0.0717429 -33.1297 -2.25189 3.52486 -0.145572 -1.43669 -1.58219 -0.0 0.0 -0.0 7.50972 29.0249 -13.0161 4.47292 15.1165 -59.0895 0.702853 19.1968 -0.11886 34.1414 0.0801067 4.29675 4.60352 -31.269 -39.9657 0.0 0.0 0.0 4.26977 10.8265 3.33389 -5.43636 0.185349 0.813421 15.8524 15.421 -2.22525 -33.3792 0.0 0.0 -0.0 0.0 -0.0 -22.5569 10.8258 -0.177122 -32.4844 0.059082 -4.9187 -23.4937 -9.87866 -3.53466 23.7862 -0.0 -0.0 0.0 0.0 0.0 
1958.38 710.966 -590.932 133.167 -73.5565 131.788 -4.24548 1.0733 1.53503 -4.2447 0.973462 1.6002 -4.21447 0.484048 1.80936 -4.21823 0.763688 1.71026 -12.3565 3.17841 4.07839 -12.3166 3.43041 4.8185 -0.0 0.0 -0.0 2.8942 -10.1454 4.79734 -14.8003 -4.42249 72.9778 0.595476 -16.4352 0.0859969 -33.0908 -2.24812 3.52159 -0.380761 -1.30345 -3.1023 -0.0 0.0 -0.0 7.75481 29.7028 -13.4743 2.98185 14.8276 -59.5911 0.487653 13.5809 -0.0580669 34.4575 0.0927909 4.33512 4.59324 -31.3217 -39.8908 0.0 0.0 0.0 3.45402 10.667 5.02665 -6.47477 0.211924 0.970561 19.6394 17.3277 -2.72866 -33.7588 0.0 0.0 -0.0 0.0 -0.0 -21.579 12.5282 1.94019 -35.2052 0.190232 -5.31549 -23.2787 -8.33957 -3.50156 22.4538 -0.0 -0.0 0.0 0.0 0.0 
1982.04 714.488 -599.692 129.331 -73.9225 128.112 -4.39591 0.945641 1.3938 -4.39523 0.855043 1.45113 -4.37103 0.407812 1.63415 -4.37414 0.660748 1.54927 -13.1129 1.86755 4.17226 -13.0644 0.941676 4.53919 -0.0 0.0 -0.0 3.13162 -11.1064 5.21026 -11.5363 -4.79385 72.1216 0.783813 -21.22 0.14683 -33.5196 -2.2898 3.55746 -0.545976 -1.50837 -4.29983 -0.0 0.0 -0.0 7.55429 29.4406 -13.0656 0.895895 13.0506 -60.0106 0.436885 12.2118 -0.0467355 33.8926 0.0702701 4.2665 4.5571 -31.1228 -39.6224 0.0 0.0 0.0 1.76962 11.5169 5.91862 -7.47111 0.234739 1.12175 18.5198 15.4212 -2.57158 -31.9671 0.0 0.0 -0.0 0.0 -0.0 -13.007 13.8435 4.26229 -48.1601 1.06573 -7.10033 -19.2555 -13.9181 -2.90595 28.1671 -0.0 -0.0 0.0 0.0 0.0 
